<?xml version="1.0" encoding="UTF-8" standalone="no"?>
<!-- Generator: Adobe Illustrator 16.0.0, SVG Export Plug-In . SVG Version: 6.00 Build 0)  -->

<svg
   xmlns:dc="http://purl.org/dc/elements/1.1/"
   xmlns:cc="http://creativecommons.org/ns#"
   xmlns:rdf="http://www.w3.org/1999/02/22-rdf-syntax-ns#"
   xmlns:svg="http://www.w3.org/2000/svg"
   xmlns="http://www.w3.org/2000/svg"
   xmlns:xlink="http://www.w3.org/1999/xlink"
   xmlns:sodipodi="http://sodipodi.sourceforge.net/DTD/sodipodi-0.dtd"
   xmlns:inkscape="http://www.inkscape.org/namespaces/inkscape"
   version="1.1"
   id="Layer_1"
   x="0px"
   y="0px"
   width="253"
   height="22.108706"
   viewBox="0 0 253 22.108706"
   enable-background="new 0 0 253 34"
   xml:space="preserve"
   inkscape:version="0.91 r13725"
   sodipodi:docname="ringcentral-developers-logo.svg"><metadata
     id="metadata41"><rdf:RDF><cc:Work
         rdf:about=""><dc:format>image/svg+xml</dc:format><dc:type
           rdf:resource="http://purl.org/dc/dcmitype/StillImage" /><dc:title></dc:title></cc:Work></rdf:RDF></metadata><defs
     id="defs39" /><sodipodi:namedview
     pagecolor="#ffffff"
     bordercolor="#666666"
     borderopacity="1"
     objecttolerance="10"
     gridtolerance="10"
     guidetolerance="10"
     inkscape:pageopacity="0"
     inkscape:pageshadow="2"
     inkscape:window-width="1342"
     inkscape:window-height="738"
     id="namedview37"
     showgrid="false"
     inkscape:zoom="3.4656617"
     inkscape:cx="76.581683"
     inkscape:cy="16.267999"
     inkscape:window-x="0"
     inkscape:window-y="0"
     inkscape:window-maximized="0"
     inkscape:current-layer="g3"
     fit-margin-top="0"
     fit-margin-left="0"
     fit-margin-right="0"
     fit-margin-bottom="0" /><g
     id="g3"
     transform="translate(0,-11.159294)"><defs
       id="defs5"><rect
         id="SVGID_1_"
         y="0.73100001"
         width="253"
         height="32.536999"
         x="0" /></defs><clipPath
       id="SVGID_2_"><use
         xlink:href="#SVGID_1_"
         overflow="visible"
         id="use9"
         style="overflow:visible"
         x="0"
         y="0"
         width="100%"
         height="100%" /></clipPath><path
       clip-path="url(#SVGID_2_)"
       d="m 17.864,19.236 c 0.641,-0.797 1.053,-1.704 1.238,-2.722 0.088,-0.459 0.131,-0.863 0.131,-1.208 0,-0.656 -0.133,-1.223 -0.398,-1.698 -0.264,-0.478 -0.688,-0.875 -1.276,-1.194 -0.587,-0.319 -1.345,-0.559 -2.273,-0.715 -0.927,-0.154 -2.065,-0.232 -3.409,-0.232 l -8.684,0 -3.193,17.73 6.027,0 1.099,-6.182 1.839,0 c 1.072,0 1.809,0.129 2.21,0.381 0.398,0.258 0.6,0.695 0.6,1.319 0,0.378 -0.052,0.835 -0.154,1.379 -0.101,0.541 -0.175,1.032 -0.216,1.465 -0.043,0.438 -0.065,0.792 -0.065,1.073 0,0.213 0.018,0.4 0.052,0.564 l 6.104,0 0.076,-0.539 c -0.305,0 -0.458,-0.199 -0.458,-0.592 0,-0.23 0.033,-0.551 0.102,-0.963 0.069,-0.407 0.163,-0.927 0.281,-1.553 0.12,-0.672 0.18,-1.26 0.18,-1.771 0,-0.491 -0.06,-0.893 -0.18,-1.205 -0.118,-0.313 -0.284,-0.575 -0.496,-0.79 -0.213,-0.213 -0.469,-0.389 -0.769,-0.529 -0.296,-0.139 -0.634,-0.274 -1.007,-0.407 1.121,-0.278 2.002,-0.815 2.639,-1.611 M 13.358,17.45 c -0.101,0.625 -0.417,1.059 -0.946,1.305 -0.529,0.247 -1.259,0.37 -2.196,0.37 l -2.375,0 0.612,-3.521 2.809,0 c 0.631,0 1.143,0.118 1.534,0.355 0.392,0.24 0.586,0.613 0.586,1.12 0,0.168 -0.007,0.289 -0.024,0.371 m 28.127,2.414 c 0,-1.28 -0.349,-2.26 -1.048,-2.932 -0.697,-0.672 -1.796,-1.009 -3.293,-1.009 -1.022,0 -1.915,0.201 -2.683,0.603 -0.765,0.405 -1.524,0.998 -2.272,1.785 l 0.358,-2.019 -4.854,0 -2.299,12.904 5.312,0 1.176,-6.575 c 0.133,-0.838 0.391,-1.49 0.765,-1.959 0.373,-0.468 0.972,-0.702 1.788,-0.702 0.578,0 0.975,0.147 1.187,0.446 0.213,0.293 0.322,0.663 0.322,1.108 0,0.279 -0.029,0.565 -0.078,0.86 l -1.227,6.821 5.313,0 1.38,-7.732 c 0.102,-0.558 0.153,-1.09 0.153,-1.599 m 11.408,-3.885 -0.281,1.687 C 52.237,17.048 51.73,16.547 51.09,16.172 50.454,15.8 49.726,15.611 48.906,15.611 c -1.107,0 -2.071,0.192 -2.897,0.577 -0.827,0.388 -1.533,0.887 -2.12,1.503 -0.587,0.616 -1.058,1.319 -1.405,2.106 -0.35,0.789 -0.591,1.575 -0.728,2.365 -0.036,0.229 -0.064,0.451 -0.088,0.665 -0.025,0.213 -0.039,0.427 -0.039,0.638 0,0.677 0.102,1.307 0.305,1.897 0.205,0.592 0.513,1.102 0.92,1.528 0.409,0.427 0.916,0.763 1.519,1.009 0.604,0.244 1.309,0.369 2.108,0.369 0.971,0 1.784,-0.14 2.439,-0.419 0.657,-0.279 1.204,-0.61 1.647,-0.985 l -0.204,1.058 c -0.172,0.924 -0.453,1.571 -0.843,1.948 -0.394,0.377 -0.972,0.565 -1.737,0.565 -0.546,0 -0.913,-0.106 -1.099,-0.32 -0.152,-0.148 -0.23,-0.312 -0.23,-0.492 l 0,-0.073 -5.338,0 0,0.17 c 0,0.462 0.116,0.905 0.346,1.33 0.229,0.431 0.59,0.807 1.084,1.136 0.494,0.327 1.142,0.589 1.941,0.787 0.802,0.197 1.78,0.296 2.938,0.296 1.651,0 2.98,-0.178 3.986,-0.528 1.004,-0.355 1.794,-0.843 2.374,-1.468 0.579,-0.624 1,-1.354 1.265,-2.192 0.262,-0.837 0.479,-1.741 0.652,-2.707 l 1.864,-10.395 -4.673,0 z m -1.456,6.072 c -0.067,0.347 -0.172,0.681 -0.307,1.001 -0.137,0.323 -0.312,0.606 -0.524,0.855 -0.213,0.246 -0.468,0.445 -0.766,0.591 -0.299,0.148 -0.633,0.226 -1.008,0.226 l -0.127,0 c -0.598,-0.017 -1.027,-0.21 -1.292,-0.582 -0.263,-0.373 -0.394,-0.812 -0.394,-1.326 0,-0.097 0.003,-0.196 0.012,-0.297 0.009,-0.096 0.022,-0.204 0.04,-0.321 0.065,-0.41 0.166,-0.798 0.292,-1.161 0.127,-0.363 0.293,-0.677 0.498,-0.939 0.205,-0.264 0.453,-0.472 0.742,-0.62 0.289,-0.148 0.63,-0.223 1.021,-0.223 l 0.052,0 c 0.681,0 1.157,0.195 1.429,0.583 0.272,0.386 0.412,0.853 0.412,1.396 -0.003,0.28 -0.031,0.553 -0.08,0.817 m -32.947,7.146 5.288,0 1.553,-10.474 -3.849,0 -2.992,10.474 z"
       id="path11"
       inkscape:connector-curvature="0"
       style="clip-rule:evenodd;fill:#0072b3;fill-rule:evenodd" /><path
       clip-path="url(#SVGID_2_)"
       d="m 67.516,11.319 c -1.207,0 -2.378,0.204 -3.514,0.614 -1.134,0.413 -2.161,0.999 -3.078,1.761 -0.918,0.761 -1.698,1.683 -2.344,2.77 -0.645,1.09 -1.086,2.309 -1.328,3.657 -0.066,0.357 -0.114,0.702 -0.144,1.035 -0.034,0.334 -0.048,0.658 -0.048,0.966 0,1.075 0.171,2.03 0.518,2.878 0.345,0.845 0.853,1.563 1.521,2.153 0.668,0.589 1.484,1.039 2.451,1.351 0.967,0.312 2.077,0.465 3.333,0.465 1.144,0 2.226,-0.157 3.249,-0.476 1.022,-0.318 1.947,-0.776 2.777,-1.374 0.829,-0.596 1.547,-1.323 2.148,-2.176 0.605,-0.855 1.066,-1.826 1.39,-2.913 l -5.481,0 c -0.257,0.811 -0.664,1.483 -1.219,2.026 -0.557,0.544 -1.293,0.814 -2.211,0.814 -0.546,0 -0.998,-0.071 -1.353,-0.222 -0.353,-0.146 -0.64,-0.349 -0.855,-0.605 -0.218,-0.256 -0.373,-0.556 -0.459,-0.896 -0.089,-0.341 -0.132,-0.713 -0.132,-1.118 0,-0.265 0.014,-0.54 0.047,-0.828 0.032,-0.284 0.08,-0.584 0.144,-0.897 0.289,-1.626 0.79,-2.849 1.499,-3.666 0.706,-0.815 1.568,-1.222 2.584,-1.222 0.836,0 1.484,0.21 1.942,0.629 0.459,0.418 0.69,1.016 0.69,1.794 0,0.061 -0.005,0.117 -0.014,0.159 -0.008,0.05 -0.013,0.104 -0.013,0.166 l 5.41,0 c 0.016,-0.125 0.024,-0.24 0.024,-0.351 l 0,-0.349 c 0,-1.954 -0.625,-3.47 -1.87,-4.541 -1.247,-1.069 -3.135,-1.604 -5.664,-1.604 M 83.981,25.56 c -0.39,0.188 -0.801,0.281 -1.226,0.281 -0.629,0 -1.157,-0.182 -1.584,-0.553 -0.425,-0.368 -0.637,-0.864 -0.637,-1.489 0,-0.083 0.003,-0.166 0.012,-0.248 0.008,-0.081 0.021,-0.163 0.037,-0.244 l 10.141,0 c 0.135,-0.707 0.204,-1.339 0.204,-1.897 0,-0.902 -0.145,-1.733 -0.435,-2.486 -0.288,-0.756 -0.715,-1.396 -1.276,-1.923 -0.561,-0.525 -1.258,-0.936 -2.082,-1.23 -0.827,-0.296 -1.777,-0.442 -2.85,-0.442 -1.072,0 -2.097,0.162 -3.077,0.49 -0.979,0.33 -1.864,0.793 -2.656,1.394 -0.792,0.599 -1.46,1.33 -2.003,2.191 -0.546,0.86 -0.911,1.819 -1.099,2.868 -0.035,0.231 -0.066,0.454 -0.089,0.676 -0.025,0.222 -0.039,0.441 -0.039,0.655 0,0.87 0.162,1.636 0.486,2.301 0.322,0.667 0.773,1.23 1.354,1.688 0.577,0.46 1.268,0.807 2.068,1.034 0.8,0.231 1.677,0.345 2.63,0.345 0.785,0 1.578,-0.067 2.388,-0.207 0.808,-0.14 1.579,-0.379 2.311,-0.713 0.733,-0.34 1.399,-0.778 2.007,-1.318 0.604,-0.545 1.092,-1.217 1.467,-2.021 l -5.083,0 c -0.255,0.378 -0.577,0.658 -0.969,0.848 m -1.992,-6.504 c 0.495,-0.4 1.141,-0.602 1.94,-0.602 0.563,0 1.032,0.182 1.407,0.541 0.372,0.361 0.561,0.805 0.561,1.331 0,0.163 -0.009,0.285 -0.025,0.369 l -4.827,0 c 0.135,-0.69 0.451,-1.234 0.944,-1.639 m 20.109,-3.361 c -1.02,0 -1.914,0.201 -2.68,0.603 -0.766,0.405 -1.524,0.998 -2.274,1.786 l 0.358,-2.02 -4.852,0 -2.299,12.904 5.312,0 1.174,-6.575 c 0.137,-0.837 0.393,-1.49 0.765,-1.959 0.376,-0.468 0.975,-0.7 1.791,-0.7 0.577,0 0.973,0.147 1.186,0.444 0.213,0.294 0.32,0.664 0.32,1.108 0,0.278 -0.025,0.565 -0.077,0.86 l -1.227,6.821 5.314,0 1.377,-7.732 c 0.102,-0.56 0.155,-1.092 0.155,-1.601 0,-1.28 -0.349,-2.26 -1.048,-2.932 -0.698,-0.671 -1.795,-1.007 -3.295,-1.007 m 11.279,9.335 c -0.203,-0.134 -0.307,-0.356 -0.307,-0.67 0,-0.098 0.008,-0.209 0.026,-0.334 0.017,-0.123 0.042,-0.254 0.078,-0.402 l 0.84,-4.699 2.554,0 0.513,-2.958 -2.553,0 0.74,-4.016 -5.234,0 -0.742,4.016 -1.967,0 -0.511,2.958 1.891,0 -0.972,5.39 c -0.086,0.442 -0.148,0.852 -0.191,1.22 -0.042,0.371 -0.065,0.704 -0.065,0.999 0,0.475 0.069,0.872 0.204,1.181 0.138,0.311 0.366,0.564 0.69,0.751 0.325,0.189 0.758,0.322 1.305,0.396 0.543,0.071 1.216,0.108 2.017,0.108 0.425,0 0.89,-0.005 1.391,-0.022 0.502,-0.016 1.052,-0.043 1.649,-0.075 l 0.636,-3.646 -0.841,0 c -0.562,-0.001 -0.945,-0.065 -1.151,-0.197 m 13.088,-4.237 c 0.178,0.032 0.353,0.066 0.523,0.1 l 0.947,-5.123 c -0.121,-0.015 -0.237,-0.034 -0.346,-0.05 -0.113,-0.016 -0.227,-0.024 -0.346,-0.024 -2.029,0 -3.576,0.993 -4.648,2.98 l -0.053,0 0.462,-2.611 -4.83,0 -2.298,12.904 5.313,0 0.791,-4.457 c 0.256,-1.394 0.703,-2.371 1.341,-2.931 0.641,-0.558 1.502,-0.837 2.592,-0.837 0.189,0 0.374,0.019 0.552,0.049 m 14.729,-3.497 c -0.17,-0.41 -0.478,-0.764 -0.92,-1.058 -0.443,-0.296 -1.052,-0.522 -1.829,-0.677 -0.77,-0.156 -1.765,-0.234 -2.973,-0.234 -1.326,0 -2.471,0.096 -3.423,0.295 -0.954,0.195 -1.757,0.479 -2.414,0.85 -0.652,0.366 -1.161,0.821 -1.519,1.354 -0.359,0.533 -0.596,1.144 -0.716,1.836 l 5.107,0 c 0.07,-0.28 0.185,-0.501 0.346,-0.667 0.163,-0.162 0.335,-0.29 0.523,-0.382 0.188,-0.09 0.388,-0.147 0.601,-0.173 0.213,-0.023 0.412,-0.037 0.6,-0.037 0.118,0 0.272,0.014 0.46,0.037 0.189,0.025 0.361,0.065 0.522,0.122 0.161,0.059 0.303,0.146 0.423,0.262 0.117,0.114 0.179,0.269 0.179,0.468 0,0.031 -0.005,0.061 -0.012,0.085 -0.01,0.025 -0.014,0.054 -0.014,0.086 -0.067,0.409 -0.355,0.692 -0.857,0.851 -0.497,0.157 -1.114,0.276 -1.839,0.368 -0.722,0.091 -1.506,0.188 -2.347,0.295 -0.844,0.108 -1.647,0.3 -2.401,0.582 -0.757,0.278 -1.423,0.691 -1.994,1.24 -0.569,0.553 -0.94,1.31 -1.109,2.28 -0.053,0.278 -0.077,0.534 -0.077,0.762 0,0.543 0.11,1.009 0.331,1.393 0.222,0.389 0.518,0.712 0.895,0.973 0.376,0.266 0.819,0.458 1.33,0.581 0.508,0.121 1.046,0.182 1.606,0.182 1.006,0 1.931,-0.12 2.771,-0.356 0.846,-0.237 1.702,-0.703 2.568,-1.39 l 0.031,1.775 5.492,0 0.02,-0.644 c -0.187,-0.181 -0.315,-0.342 -0.385,-0.481 -0.067,-0.139 -0.101,-0.298 -0.101,-0.481 0,-0.179 0.026,-0.408 0.075,-0.687 l 1.074,-6.034 c 0.067,-0.362 0.122,-0.708 0.166,-1.037 0.043,-0.325 0.063,-0.647 0.063,-0.956 0.002,-0.512 -0.083,-0.973 -0.253,-1.383 m -5.951,6.834 c -0.139,0.386 -0.321,0.723 -0.562,1.009 -0.236,0.291 -0.531,0.516 -0.879,0.68 -0.35,0.165 -0.757,0.243 -1.214,0.243 -0.495,0 -0.866,-0.082 -1.111,-0.256 -0.25,-0.172 -0.371,-0.396 -0.371,-0.678 l 0,-0.148 c 0.067,-0.413 0.249,-0.715 0.549,-0.91 0.297,-0.198 0.657,-0.349 1.073,-0.457 0.416,-0.106 0.868,-0.206 1.354,-0.295 0.484,-0.092 0.966,-0.236 1.442,-0.433 -0.051,0.445 -0.144,0.859 -0.281,1.245 m 6.206,4.839 5.315,0 3.19,-17.73 -5.313,0 -3.192,17.73 z M 27.983,13.274 c -0.04,-0.098 -0.892,-1.605 -3.323,-2.022 -0.597,-0.104 -1.133,-0.113 -1.604,-0.064 -1.529,0.154 -2.331,0.901 -2.391,0.96 -0.246,0.234 -0.246,0.618 0,0.854 0.244,0.237 0.642,0.238 0.885,0.002 0,0 0.009,-0.011 0.07,-0.054 0.186,-0.14 0.709,-0.473 1.566,-0.559 0.356,-0.036 0.77,-0.031 1.251,0.053 0.978,0.172 1.583,0.538 1.954,0.85 0.184,0.158 0.31,0.3 0.386,0.399 0.037,0.049 0.062,0.089 0.075,0.109 0.012,0.018 0.011,0.018 0.012,0.018 0.12,0.233 0.375,0.354 0.625,0.33 0.075,-0.008 0.147,-0.028 0.217,-0.061 0.311,-0.152 0.436,-0.517 0.277,-0.815 z m -3.833,0.189 0,0 c -0.365,-0.062 -0.7,-0.069 -0.992,-0.04 -0.957,0.098 -1.463,0.565 -1.514,0.615 -0.205,0.198 -0.205,0.518 0,0.713 0.205,0.199 0.537,0.197 0.741,0 0,0 -0.001,-10e-4 0.026,-0.022 0.096,-0.07 0.379,-0.254 0.856,-0.303 0.196,-0.019 0.427,-0.017 0.7,0.03 0.554,0.1 0.89,0.304 1.088,0.473 0.104,0.086 0.168,0.164 0.209,0.215 0.038,0.051 0.033,0.057 0.038,0.055 0.099,0.192 0.311,0.296 0.521,0.274 0.062,-0.005 0.123,-0.023 0.182,-0.052 0.258,-0.124 0.362,-0.429 0.233,-0.676 -0.033,-0.082 -0.58,-1.022 -2.088,-1.282 m -0.647,1.841 c -0.751,-10e-4 -1.362,0.499 -1.363,1.122 -0.003,0.616 0.601,1.124 1.354,1.127 0.75,0.003 1.358,-0.496 1.364,-1.117 0.003,-0.619 -0.604,-1.127 -1.355,-1.132 m 133.451,-2.106 c -0.158,-0.35 -0.373,-0.651 -0.642,-0.907 -0.272,-0.255 -0.587,-0.456 -0.947,-0.603 -0.361,-0.145 -0.746,-0.218 -1.155,-0.218 -0.408,0 -0.793,0.073 -1.158,0.218 -0.362,0.146 -0.681,0.348 -0.954,0.603 -0.273,0.256 -0.489,0.558 -0.647,0.907 -0.16,0.347 -0.239,0.722 -0.239,1.127 0,0.415 0.079,0.796 0.239,1.146 0.158,0.351 0.374,0.654 0.647,0.913 0.273,0.258 0.592,0.458 0.954,0.601 0.365,0.145 0.75,0.217 1.158,0.217 0.409,0 0.794,-0.072 1.155,-0.217 0.36,-0.143 0.675,-0.343 0.947,-0.601 0.269,-0.259 0.483,-0.562 0.642,-0.913 0.16,-0.351 0.239,-0.731 0.239,-1.146 0,-0.405 -0.079,-0.78 -0.239,-1.127 m -0.489,2.105 c -0.125,0.298 -0.296,0.559 -0.518,0.778 -0.218,0.221 -0.478,0.393 -0.774,0.518 -0.296,0.126 -0.618,0.189 -0.963,0.189 -0.35,0 -0.675,-0.063 -0.974,-0.189 -0.3,-0.125 -0.561,-0.297 -0.78,-0.518 -0.222,-0.22 -0.394,-0.48 -0.516,-0.778 -0.127,-0.3 -0.189,-0.626 -0.189,-0.978 0,-0.344 0.062,-0.663 0.189,-0.96 0.122,-0.297 0.294,-0.553 0.516,-0.771 0.22,-0.218 0.48,-0.389 0.78,-0.515 0.299,-0.125 0.624,-0.188 0.974,-0.188 0.345,0 0.667,0.062 0.963,0.188 0.297,0.126 0.557,0.297 0.774,0.515 0.222,0.218 0.393,0.474 0.518,0.771 0.126,0.297 0.188,0.616 0.188,0.96 0,0.352 -0.062,0.678 -0.188,0.978 m -1.117,-1.02 c 0.175,-0.142 0.263,-0.363 0.263,-0.665 0,-0.321 -0.1,-0.562 -0.299,-0.721 -0.199,-0.158 -0.505,-0.238 -0.918,-0.238 l -1.346,0 0,3.354 0.542,0 0,-1.443 0.572,0 0.947,1.442 0.581,0 -0.995,-1.482 c 0.261,-0.024 0.478,-0.106 0.653,-0.247 m -1.194,-0.135 -0.564,0 0,-1.066 0.715,0 c 0.092,0 0.183,0.006 0.277,0.02 0.091,0.012 0.173,0.036 0.245,0.072 0.07,0.035 0.131,0.087 0.176,0.153 0.042,0.066 0.067,0.155 0.067,0.268 0,0.133 -0.026,0.238 -0.078,0.312 -0.048,0.074 -0.115,0.129 -0.201,0.165 -0.086,0.035 -0.183,0.058 -0.29,0.065 -0.109,0.007 -0.226,0.011 -0.347,0.011"
       id="path13"
       inkscape:connector-curvature="0"
       style="fill:#ff8900" /><path
       clip-path="url(#SVGID_2_)"
       d="m 169.83,20.96 c -0.046,0.805 -0.165,1.561 -0.361,2.264 -0.196,0.703 -0.454,1.347 -0.777,1.931 -0.323,0.584 -0.7,1.104 -1.137,1.562 -0.437,0.458 -0.919,0.846 -1.444,1.161 -0.525,0.315 -1.089,0.558 -1.689,0.722 -0.602,0.163 -1.229,0.245 -1.882,0.245 l -4.54,0 2.437,-13.691 4.538,0 c 0.794,0 1.504,0.139 2.131,0.412 0.626,0.274 1.15,0.663 1.569,1.167 0.421,0.502 0.729,1.111 0.93,1.827 0.201,0.716 0.276,1.516 0.225,2.4 m -0.982,0.019 c 0.045,-0.78 -0.016,-1.483 -0.18,-2.108 -0.165,-0.626 -0.42,-1.154 -0.768,-1.586 -0.349,-0.433 -0.78,-0.765 -1.297,-0.997 -0.518,-0.231 -1.107,-0.349 -1.768,-0.349 l -3.585,0 -2.168,12.125 3.585,0 c 0.839,0 1.621,-0.16 2.344,-0.479 0.724,-0.32 1.36,-0.782 1.91,-1.39 0.551,-0.605 0.993,-1.348 1.328,-2.224 0.336,-0.879 0.536,-1.875 0.599,-2.992"
       id="path15"
       inkscape:connector-curvature="0"
       style="fill:#585858" /><polygon
       clip-path="url(#SVGID_2_)"
       points="177.561,21.521 177.412,22.295 172.016,22.295 170.992,28.052 177.514,28.052 177.364,28.844 169.899,28.844 172.335,15.154 179.792,15.154 179.642,15.948 173.148,15.948 172.155,21.521 "
       id="polygon17"
       style="fill:#585858" /><path
       clip-path="url(#SVGID_2_)"
       d="m 179.569,15.153 0.754,0 c 0.089,0 0.156,0.025 0.202,0.073 0.044,0.049 0.074,0.108 0.089,0.18 l 2.155,11.427 c 0.024,0.137 0.047,0.28 0.071,0.436 0.021,0.153 0.039,0.315 0.048,0.483 0.066,-0.168 0.135,-0.33 0.204,-0.483 0.069,-0.155 0.142,-0.299 0.221,-0.436 l 6.205,-11.427 c 0.036,-0.072 0.089,-0.131 0.161,-0.18 0.067,-0.047 0.147,-0.073 0.236,-0.073 l 0.743,0 -7.547,13.691 -0.849,0 -2.693,-13.691 z"
       id="path19"
       inkscape:connector-curvature="0"
       style="fill:#585858" /><polygon
       clip-path="url(#SVGID_2_)"
       points="196.419,21.521 196.271,22.295 190.874,22.295 189.851,28.052 196.372,28.052 196.223,28.844 188.758,28.844 191.193,15.154 198.65,15.154 198.499,15.948 192.008,15.948 191.014,21.521 "
       id="polygon21"
       style="fill:#585858" /><polygon
       clip-path="url(#SVGID_2_)"
       points="197.69,28.845 200.127,15.153 201.069,15.153 198.775,28.023 204.648,28.023 204.497,28.845 "
       id="polygon23"
       style="fill:#585858" /><path
       clip-path="url(#SVGID_2_)"
       d="m 216.902,20.948 c -0.067,1.209 -0.304,2.305 -0.707,3.292 -0.401,0.986 -0.932,1.832 -1.588,2.534 -0.657,0.704 -1.415,1.249 -2.275,1.636 -0.861,0.388 -1.782,0.581 -2.761,0.581 -0.789,0 -1.491,-0.144 -2.11,-0.431 -0.619,-0.287 -1.138,-0.692 -1.557,-1.215 -0.419,-0.523 -0.729,-1.148 -0.928,-1.877 -0.2,-0.729 -0.276,-1.535 -0.228,-2.419 0.07,-1.199 0.308,-2.296 0.713,-3.285 0.405,-0.99 0.937,-1.839 1.588,-2.545 0.654,-0.706 1.411,-1.252 2.269,-1.639 0.856,-0.386 1.772,-0.58 2.745,-0.58 0.796,0 1.503,0.143 2.125,0.43 0.623,0.287 1.143,0.693 1.562,1.213 0.419,0.523 0.727,1.151 0.926,1.882 0.203,0.733 0.275,1.541 0.226,2.423 m -0.981,0.022 c 0.043,-0.794 -0.016,-1.508 -0.18,-2.144 -0.164,-0.636 -0.421,-1.177 -0.77,-1.625 -0.352,-0.448 -0.784,-0.792 -1.301,-1.036 -0.517,-0.241 -1.104,-0.363 -1.757,-0.363 -0.827,0 -1.604,0.168 -2.327,0.504 -0.725,0.335 -1.362,0.815 -1.919,1.441 -0.552,0.625 -1.002,1.384 -1.343,2.273 -0.342,0.89 -0.546,1.892 -0.61,3 -0.045,0.793 0.017,1.508 0.184,2.144 0.168,0.637 0.427,1.176 0.774,1.619 0.352,0.447 0.783,0.789 1.297,1.032 0.514,0.241 1.098,0.362 1.753,0.362 0.841,0 1.621,-0.165 2.345,-0.498 0.725,-0.332 1.361,-0.812 1.913,-1.437 0.55,-0.627 0.995,-1.383 1.335,-2.269 0.339,-0.887 0.54,-1.887 0.606,-3.003"
       id="path25"
       inkscape:connector-curvature="0"
       style="fill:#585858" /><path
       clip-path="url(#SVGID_2_)"
       d="m 219.142,23.32 -0.98,5.524 -0.943,0 2.425,-13.691 3.242,0 c 1.322,0 2.297,0.301 2.924,0.906 0.627,0.603 0.909,1.45 0.848,2.539 -0.04,0.697 -0.192,1.335 -0.463,1.912 -0.267,0.577 -0.629,1.074 -1.084,1.49 -0.458,0.416 -0.995,0.74 -1.618,0.973 -0.623,0.231 -1.31,0.348 -2.061,0.348 l -2.29,0 z m 1.317,-7.402 -1.178,6.629 2.288,0 c 0.598,0 1.143,-0.098 1.634,-0.291 0.488,-0.193 0.916,-0.461 1.275,-0.803 0.359,-0.342 0.645,-0.749 0.854,-1.219 0.213,-0.472 0.334,-0.984 0.366,-1.54 0.049,-0.877 -0.171,-1.559 -0.662,-2.045 -0.49,-0.487 -1.253,-0.731 -2.29,-0.731 l -2.287,0 z"
       id="path27"
       inkscape:connector-curvature="0"
       style="fill:#585858" /><polygon
       clip-path="url(#SVGID_2_)"
       points="233.621,21.521 233.473,22.295 228.077,22.295 227.054,28.052 233.574,28.052 233.426,28.844 225.96,28.844 228.396,15.154 235.853,15.154 235.703,15.948 229.209,15.948 228.215,21.521 "
       id="polygon29"
       style="fill:#585858" /><path
       clip-path="url(#SVGID_2_)"
       d="m 237.2,22.644 -1.105,6.201 -0.943,0 2.426,-13.691 3.203,0 c 1.303,0 2.265,0.264 2.878,0.79 0.616,0.525 0.896,1.289 0.839,2.289 -0.034,0.594 -0.158,1.136 -0.378,1.63 -0.22,0.493 -0.515,0.926 -0.886,1.297 -0.369,0.37 -0.809,0.673 -1.313,0.904 -0.506,0.232 -1.06,0.387 -1.663,0.464 0.13,0.097 0.233,0.224 0.314,0.379 l 3.179,5.939 -0.81,0 c -0.191,0 -0.33,-0.08 -0.415,-0.242 l -2.936,-5.573 c -0.079,-0.142 -0.17,-0.242 -0.271,-0.3 -0.104,-0.058 -0.271,-0.086 -0.508,-0.086 l -1.611,0 z m 1.203,-6.726 -1.077,6.01 2.127,0 c 0.604,0 1.15,-0.084 1.641,-0.254 0.488,-0.166 0.91,-0.405 1.265,-0.714 0.355,-0.311 0.634,-0.685 0.837,-1.122 0.203,-0.439 0.318,-0.926 0.35,-1.461 0.047,-0.826 -0.176,-1.442 -0.667,-1.849 -0.491,-0.407 -1.234,-0.61 -2.225,-0.61 l -2.251,0 z"
       id="path31"
       inkscape:connector-curvature="0"
       style="fill:#585858" /><path
       clip-path="url(#SVGID_2_)"
       d="m 252.71,16.808 c -0.074,0.11 -0.162,0.164 -0.258,0.164 -0.075,0 -0.163,-0.06 -0.265,-0.183 -0.102,-0.124 -0.241,-0.256 -0.42,-0.402 -0.182,-0.144 -0.415,-0.278 -0.703,-0.4 -0.289,-0.125 -0.656,-0.185 -1.101,-0.185 -0.483,0 -0.918,0.08 -1.304,0.237 -0.388,0.158 -0.722,0.375 -1,0.647 -0.281,0.276 -0.501,0.596 -0.661,0.958 -0.159,0.366 -0.252,0.754 -0.276,1.167 -0.021,0.393 0.038,0.723 0.183,0.992 0.143,0.268 0.339,0.497 0.586,0.688 0.246,0.188 0.53,0.354 0.849,0.493 0.321,0.139 0.649,0.273 0.988,0.405 0.34,0.133 0.668,0.277 0.985,0.436 0.317,0.157 0.601,0.35 0.844,0.575 0.245,0.228 0.438,0.501 0.578,0.823 0.141,0.323 0.197,0.719 0.172,1.19 -0.035,0.618 -0.176,1.207 -0.416,1.766 -0.241,0.558 -0.569,1.045 -0.983,1.462 -0.414,0.416 -0.908,0.746 -1.48,0.991 -0.574,0.245 -1.208,0.367 -1.9,0.367 -0.812,0 -1.49,-0.159 -2.034,-0.479 -0.54,-0.318 -0.985,-0.756 -1.335,-1.311 l 0.339,-0.416 c 0.094,-0.09 0.186,-0.135 0.274,-0.135 0.058,0 0.12,0.039 0.188,0.115 0.069,0.078 0.152,0.173 0.25,0.286 0.1,0.112 0.217,0.235 0.353,0.367 0.136,0.133 0.3,0.255 0.498,0.368 0.195,0.111 0.427,0.208 0.695,0.285 0.265,0.078 0.576,0.115 0.931,0.115 0.534,0 1.023,-0.091 1.466,-0.274 0.441,-0.185 0.825,-0.437 1.149,-0.761 0.323,-0.323 0.578,-0.7 0.767,-1.136 0.186,-0.435 0.293,-0.905 0.322,-1.409 0.021,-0.399 -0.039,-0.731 -0.182,-1.001 -0.145,-0.268 -0.339,-0.494 -0.586,-0.682 -0.247,-0.187 -0.531,-0.346 -0.852,-0.475 -0.321,-0.129 -0.648,-0.258 -0.983,-0.388 -0.337,-0.129 -0.665,-0.27 -0.986,-0.424 -0.322,-0.155 -0.604,-0.348 -0.848,-0.576 -0.245,-0.229 -0.437,-0.511 -0.573,-0.843 -0.138,-0.331 -0.19,-0.74 -0.164,-1.224 0.029,-0.522 0.151,-1.026 0.361,-1.51 0.213,-0.484 0.503,-0.911 0.869,-1.281 0.368,-0.373 0.809,-0.667 1.323,-0.887 0.515,-0.218 1.094,-0.327 1.734,-0.327 0.649,0 1.211,0.121 1.687,0.362 0.476,0.242 0.879,0.596 1.209,1.06 l -0.29,0.39 z"
       id="path33"
       inkscape:connector-curvature="0"
       style="fill:#585858" /></g></svg>